<svg xmlns="http://www.w3.org/2000/svg" xmlns:xlink="http://www.w3.org/1999/xlink" width="24" height="24" preserveAspectRatio="xMidYMid meet" viewBox="0 0 24 24" style="-ms-transform: rotate(360deg); -webkit-transform: rotate(360deg); transform: rotate(360deg);"><g fill="none"><path d="M8 4v12a2 2 0 0 0 2 2h8a2 2 0 0 0 2-2V7.242a2 2 0 0 0-.602-1.43L16.083 2.57A2 2 0 0 0 14.685 2H10a2 2 0 0 0-2 2z" stroke="#fff" stroke-width="2" stroke-linecap="round" stroke-linejoin="round"/><path d="M16 18v2a2 2 0 0 1-2 2H6a2 2 0 0 1-2-2V9a2 2 0 0 1 2-2h2" stroke="#fff" stroke-width="2" stroke-linecap="round" stroke-linejoin="round"/></g><rect x="0" y="0" width="24" height="24" fill="rgba(0, 0, 0, 0)" /></svg>